<?xml version="1.0" encoding="UTF-8"?>
<svg width="28px" height="29px" viewBox="0 0 28 29" version="1.1" xmlns="http://www.w3.org/2000/svg" xmlns:xlink="http://www.w3.org/1999/xlink">
    <title>Group 31</title>
    <defs>
        <polygon id="path-1" points="2.90556901e-06 0.0179184262 27.9087458 0.0179184262 27.9087458 17.8111293 2.90556901e-06 17.8111293"></polygon>
        <polygon id="path-3" points="0.0280677966 0.000464891041 0.993646489 0.000464891041 0.993646489 1.90404552 0.0280677966 1.90404552"></polygon>
    </defs>
    <g id="Mobile-App" stroke="none" stroke-width="1" fill="none" fill-rule="evenodd">
        <g id="Scanned" transform="translate(-50.000000, -522.000000)">
            <g id="Group-7" transform="translate(16.000000, 514.000000)">
                <g id="Group-6" transform="translate(34.000000, 8.000000)">
                    <g id="Group-31" transform="translate(0.000000, -0.000000)">
                        <path d="M23.6682915,18.6231283 C22.8682722,20.5147119 21.5312165,22.1249782 19.8485433,23.2616949 C18.1656668,24.3985278 16.1386547,25.0620726 13.9543642,25.0620726 C12.498093,25.0620726 11.1120203,24.7670121 9.85097433,24.2336659 C7.95936174,23.4336465 6.3490954,22.0965908 5.2124368,20.4138886 C4.07557482,18.7310121 3.41200097,16.7040291 3.41200097,14.5197094 C3.41200097,13.0634673 3.7070615,11.6773947 4.24040775,10.4163196 C5.04045617,8.52473608 6.37748281,6.91444068 8.06021404,5.77778208 C9.74309056,4.6409201 11.7700736,3.9773753 13.9543642,3.9773753 C15.4106063,3.9773753 16.7966789,4.27243584 18.0577831,4.80578208 C19.9493666,5.60583051 21.5596039,6.94282809 22.6963206,8.62555932 C23.8331535,10.3084068 24.4966983,12.3354189 24.4966983,14.5197094 C24.4966983,15.9759806 24.2016378,17.3620823 23.6682915,18.6231283 M20.1337831,5.35542857 C18.3701608,4.1637385 16.2424416,3.46770944 13.9543642,3.46770944 C12.4290567,3.46770944 10.9747031,3.77703632 9.65234964,4.33635835 C7.66865956,5.17539952 5.98171525,6.576523 4.79005424,8.34029056 C3.59839322,10.1039419 2.90236416,12.231632 2.90236416,14.5197094 C2.90236416,16.045046 3.21169104,17.4993705 3.77098402,18.821753 C4.61005424,20.8054431 6.01111961,22.4923874 7.77491622,23.6840194 C9.53856755,24.8757094 11.6662867,25.5717094 13.9543642,25.5717094 C15.4797007,25.5717094 16.9339961,25.2624116 18.2564077,24.7030896 C20.2400688,23.8639322 21.9270131,22.462954 23.1186741,20.6991574 C24.3103351,18.9355061 25.0063642,16.807816 25.0063642,14.5197094 C25.0063642,12.9944019 24.6970373,11.5400775 24.1377443,10.2176949 C23.2987031,8.23400484 21.8975797,6.54706053 20.1337831,5.35542857" id="Fill-1" fill="#FFFFFF"></path>
                        <g id="Group-5" transform="translate(0.000000, 10.662973)">
                            <mask id="mask-2" fill="white">
                                <use xlink:href="#path-1"></use>
                            </mask>
                            <g id="Clip-4"></g>
                            <path d="M27.4263661,0.206286683 C27.3956542,0.0926208232 27.2928552,0.0179184262 27.1804678,0.0179184262 C27.1584726,0.0179184262 27.1361288,0.0207661017 27.1139884,0.0267515738 C27.0003806,0.0575506053 26.9255041,0.160175303 26.9255332,0.272591768 C26.9255041,0.294645036 26.9284097,0.317076029 26.9344242,0.339303632 L26.9344242,0.339303632 C26.9344242,0.339303632 26.9344242,0.339303632 26.9344242,0.339332688 C27.2373879,1.4602431 27.3991409,2.639323 27.3991409,3.85675642 C27.3991409,5.71385085 27.022986,7.4816862 26.3427923,9.09000581 C25.3224145,11.5024998 23.6173104,13.5557492 21.4712571,15.0055409 C19.3251458,16.4551584 16.7397705,17.3014634 13.9543758,17.3014925 C12.0972814,17.3014925 10.3294751,16.9253956 8.72115545,16.2450276 C6.30880678,15.2247661 4.255354,13.519662 2.80559128,11.3736087 C1.35582857,9.22749734 0.509639709,6.64215109 0.509639709,3.85675642 C0.509639709,2.639323 0.67136368,1.46035932 0.974356416,0.339303632 C0.980341889,0.31713414 0.983247458,0.294732203 0.983247458,0.27270799 C0.983276513,0.160320581 0.908370944,0.0576958838 0.794792252,0.0268968523 C0.77262276,0.0208823245 0.750220823,0.0179184262 0.728167554,0.0179184262 C0.615809201,0.0179184262 0.513068281,0.0927661017 0.482385472,0.206315738 C0.167857627,1.36964746 2.90556901e-06,2.5930954 2.90556901e-06,3.85515835 L2.90556901e-06,3.85632058 L2.90556901e-06,3.85780242 C2.90556901e-06,5.78343923 0.390482324,7.61926489 1.09670993,9.28848523 C2.15605133,11.7930857 3.92513608,13.9233036 6.1521385,15.4278944 C8.37870508,16.9323109 11.064584,17.8111293 13.9533879,17.8111293 L13.9535913,17.8111293 L13.9543758,17.8111293 L13.9553056,17.8111293 C15.8809714,17.8111293 17.7168552,17.4206208 19.3861046,16.7144513 C21.890676,15.6550518 24.0208939,13.8860252 25.5255138,11.6590228 C27.029814,9.43239806 27.9087487,6.74651913 27.9087487,3.85765714 L27.9087487,3.85739564 L27.9087487,3.85719225 L27.9087487,3.85675642 C27.9087487,2.5941414 27.7410102,1.36999613 27.4263661,0.206286683" id="Fill-3" fill="#FFFFFF" mask="url(#mask-2)"></path>
                        </g>
                        <path d="M2.18431961,7.67567361 L2.10796126,7.80616271 L1.62552058,7.52397385 L1.69034383,7.41315545 C1.73491525,7.33694237 1.78872639,7.25605133 1.87435351,7.21700048 C1.93618402,7.19038547 2.02364165,7.18195932 2.11478935,7.23524746 C2.18615012,7.27697143 2.24269249,7.34975593 2.254954,7.43622567 C2.26634383,7.53536368 2.22020339,7.61413366 2.18431961,7.67567361 L2.18431961,7.67567361 Z M2.9918063,8.32291816 L2.38372881,7.96739274 L2.5046586,7.76057433 C2.61544794,7.57110218 2.64055206,7.40403196 2.60266344,7.25959613 C2.55053753,7.06062276 2.37902179,6.9472184 2.31507022,6.90976562 C2.19698789,6.84070024 2.0167845,6.78157191 1.82080387,6.84537821 C1.64446489,6.9040707 1.54985956,7.02058402 1.44191768,7.20520387 L1.16257627,7.68279225 L2.8046586,8.64299564 L2.9918063,8.32291816 Z" id="Fill-6" fill="#FFFFFF"></path>
                        <path d="M3.59150702,5.14394092 L4.28091138,5.40218789 L3.91739564,5.80399903 L3.59150702,5.14394092 Z M4.24630605,6.48613947 L4.06313898,6.09359709 L4.57777337,5.52468668 L4.98670315,5.66784407 L5.25450944,5.37170847 L3.31016077,4.68555835 L3.11505182,4.90135496 L3.97649492,6.78442518 L4.24630605,6.48613947 Z" id="Fill-8" fill="#FFFFFF"></path>
                        <path d="M5.92948184,3.51551768 L5.5991477,3.04702373 L5.69000484,2.98292688 C5.74599516,2.94349831 5.98529782,2.7782586 6.14798063,3.00898983 C6.30903632,3.23748378 6.07388862,3.41367748 6.01566102,3.45470412 L5.92948184,3.51551768 Z M6.52099758,4.354646 L6.08057143,3.73003584 L6.11793705,3.70371138 L6.97313317,4.03587603 L7.35074092,3.76963874 L6.40422276,3.4564184 C6.46887167,3.38990993 6.50678935,3.32479613 6.52672155,3.26898015 C6.59038257,3.10188087 6.55734625,2.9263845 6.45053753,2.77483002 C6.36830993,2.65831671 6.23970944,2.55005521 6.05012107,2.5336678 C5.9351477,2.52399225 5.78615012,2.54534818 5.5718063,2.69649588 L5.1219661,3.01369685 L6.21806295,4.56832155 L6.52099758,4.354646 Z" id="Fill-10" fill="#FFFFFF"></path>
                        <path d="M8.53974044,2.89738983 C8.7458615,2.97400969 8.97676707,2.99981114 9.28385666,2.86932203 C9.47286392,2.78898305 9.59178886,2.68258111 9.67346441,2.58286199 L9.50392446,2.18389831 C9.4528155,2.34815012 9.33856852,2.48032446 9.17588571,2.54956416 C8.88190024,2.67447458 8.49345472,2.59169492 8.32838935,2.20327845 C8.19121743,1.88038257 8.29689298,1.49463923 8.64858305,1.34520581 C8.71154673,1.31844552 8.91665085,1.24679419 9.15482034,1.36243584 L8.98519322,0.963472155 C8.78831186,0.94496368 8.63234092,0.986397094 8.50899952,1.03881356 C8.25973075,1.14480872 8.06970654,1.303046 7.96414722,1.543046 C7.87372591,1.74576755 7.83952736,2.0299322 7.97454915,2.34742373 C8.08379855,2.60468281 8.25516901,2.78898305 8.53974044,2.89738983" id="Fill-12" fill="#FFFFFF"></path>
                        <polygon id="Fill-14" fill="#FFFFFF" points="12.0922111 2.05632058 12.031107 1.74280969 11.3593395 1.87356029 11.2600852 1.36406877 11.9039012 1.23869346 11.8429424 0.925182567 11.1990973 1.05052881 11.1179448 0.633463438 11.7896833 0.502712833 11.7286954 0.189201937 10.69286 0.390906538 11.0565211 2.25802518"></polygon>
                        <g id="Group-18" transform="translate(13.481840, 0.028591)">
                            <mask id="mask-4" fill="white">
                                <use xlink:href="#path-3"></use>
                            </mask>
                            <g id="Clip-17"></g>
                            <polygon id="Fill-16" fill="#FFFFFF" mask="url(#mask-4)" points="0.993646489 1.90035545 0.992397094 1.58100436 0.404978208 1.5832707 0.398847458 0.000461985472 0.0280677966 0.00191476998 0.0354769976 1.90404552"></polygon>
                        </g>
                        <path d="M16.4052639,0.559327845 L16.5313075,0.582979177 C16.6182421,0.599221308 16.7124988,0.622727361 16.7781646,0.69007845 C16.8240436,0.739385956 16.8614964,0.818853269 16.8419709,0.922553027 C16.8267458,1.0038799 16.777322,1.08166199 16.7001211,1.12239806 C16.6106295,1.16656271 16.5209056,1.14973947 16.4508523,1.13649007 L16.3022906,1.10871283 L16.4052639,0.559327845 Z M16.2434528,1.42265956 L16.4789201,1.46682421 C16.6946877,1.50726973 16.8605085,1.47437869 16.9835884,1.39020436 C17.1533608,1.27395254 17.2023487,1.07425278 17.2160048,1.001323 C17.2412252,0.866853269 17.2361114,0.677264891 17.1099225,0.51446586 C16.9951235,0.36817046 16.8536513,0.318456174 16.6434334,0.278998547 L16.099569,0.177158354 L15.7493317,2.04668862 L16.113661,2.11505666 L16.2434528,1.42265956 Z" id="Fill-19" fill="#FFFFFF"></path>
                        <path d="M18.8871283,1.89244358 C19.0439419,1.54075351 19.3949346,1.39745085 19.7336368,1.54845327 C20.0722228,1.69928136 20.2004455,2.05611429 20.0437482,2.4077753 C19.8870799,2.75946538 19.5372203,2.90021114 19.1985182,2.74923777 C18.8599031,2.59838063 18.7305763,2.24413366 18.8871283,1.89244358 M19.0616077,3.05661792 C19.6085811,3.30033705 20.1572688,3.09209492 20.3928814,2.56333947 C20.6284649,2.03458402 20.4176368,1.4847632 19.8705182,1.24107312 C19.3235738,0.997324939 18.773724,1.20815303 18.5381114,1.7370247 C18.3025569,2.26578015 18.5145182,2.81289879 19.0616077,3.05661792" id="Fill-21" fill="#FFFFFF"></path>
                        <polygon id="Fill-23" fill="#FFFFFF" points="22.5730024 2.86752639 22.2723051 2.65059661 21.1591235 4.19295981 21.4597918 4.40988959"></polygon>
                        <polygon id="Fill-25" fill="#FFFFFF" points="23.7958228 4.74559031 23.6462441 6.45900436 23.820491 6.64775012 25.2182441 5.3577937 24.9668252 5.08528039 24.0342828 5.94593898 24.1816823 4.23435545 24.0076387 4.04578402 22.6097114 5.33571138 22.8611303 5.60819564"></polygon>
                        <polygon id="Fill-27" fill="#FFFFFF" points="24.7580659 8.04914092 24.9441094 8.36977046 26.3133879 7.57608523 26.5279061 7.94616755 26.8042257 7.78604165 26.1893201 6.72516029 25.9130005 6.88525714 26.1274896 7.25531041"></polygon>
                        <path d="M20.2086508,13.9196833 C20.0911787,14.254463 19.9307913,14.5714896 19.7296969,14.8578044 C19.5788688,15.072584 19.4052029,15.2701337 19.2092223,15.4457753 C18.9150625,15.7092232 18.5710431,15.9237414 18.1737065,16.0738431 C17.7763119,16.2237705 17.3248446,16.309601 16.8134935,16.3097172 C16.3962538,16.3097172 16.0450286,16.2429182 15.7527574,16.1327971 C15.6573094,16.0968262 15.5684571,16.0559448 15.4850964,16.0113153 C15.875692,15.27917 16.2845927,14.4739787 16.7296969,13.59917 C16.8308397,13.4003128 16.751663,13.1571167 16.5528349,13.0559448 C16.3539777,12.9548019 16.1107816,13.0339787 16.0096097,13.2328358 C15.5958857,14.0461046 15.2149947,14.7957123 14.8542392,15.4768939 C14.7785201,15.3761579 14.7147429,15.2695525 14.6626169,15.1586179 C14.5465976,14.9115574 14.4888639,14.6429956 14.4888639,14.3764969 C14.4888639,14.1508504 14.5302683,13.9271506 14.6112174,13.7200126 C14.6719438,13.5646228 14.7547525,13.4185308 14.8591496,13.2865308 C14.9374838,13.187538 15.0279923,13.0964484 15.1312271,13.0149472 C15.286123,12.892768 15.4696387,12.7919157 15.6865104,12.7204678 C15.903324,12.649107 16.1539584,12.6072668 16.4421327,12.6072378 C16.6163215,12.6072668 16.7649414,12.6281579 16.8937453,12.6621821 C16.9903554,12.6877511 17.0759826,12.7207874 17.1531835,12.75917 C17.2688833,12.8167584 17.3660455,12.8865211 17.4498131,12.9633443 C17.5334935,13.0401385 17.6035177,13.1242257 17.6617453,13.2086615 C17.7884281,13.3923225 18.0399923,13.438492 18.2236533,13.3118383 C18.4072852,13.1851264 18.4534547,12.9335913 18.3267719,12.7499303 C18.2488736,12.6369908 18.1544717,12.5207971 18.0400213,12.40963 C17.8827719,12.2567099 17.6863264,12.1135816 17.4484184,12.0051748 C17.6517792,11.5909569 17.8688833,11.1746179 18.1114692,10.7643806 C18.3617259,10.3411554 18.638801,9.92452591 18.9549559,9.52277288 C19.0818131,9.60732494 19.2001278,9.69934431 19.3102489,9.7981046 C19.4994015,9.96773172 19.6644378,10.157262 19.8061133,10.36286 C20.0185685,10.67117 20.1784039,11.0158867 20.2851545,11.3813782 C20.3919051,11.7467826 20.4452804,12.1327584 20.4452804,12.5209424 C20.4452804,12.9956833 20.3653482,13.4733879 20.2086508,13.9196833 M20.4114305,9.81978015 C20.2281763,9.56778015 20.0140649,9.33428862 19.7691835,9.12639516 C19.5560891,8.94540726 19.3194886,8.78414818 19.0607186,8.64654044 C19.05514,8.64337337 19.0494741,8.64052591 19.0438082,8.63762034 C18.8615709,8.54179467 18.6685249,8.45750412 18.4646702,8.38660823 C17.9639826,8.2123322 17.3999535,8.11766842 16.7767671,8.11766842 C16.0569995,8.11740726 15.4246896,8.26486489 14.88806,8.51009492 C14.4854935,8.6938431 14.1369995,8.93175109 13.8422295,9.19938305 C13.6210867,9.40018692 13.4299584,9.61766842 13.2674499,9.84235642 C13.0237308,10.1795768 12.8441956,10.5326615 12.7239632,10.8746179 C12.663876,11.0456688 12.6186654,11.2140465 12.588186,11.3772814 C12.5577646,11.5405453 12.5419293,11.6986082 12.5419002,11.8501627 C12.5421036,12.0181627 12.5609317,12.1783467 12.6066073,12.3304533 C12.6295903,12.406463 12.6595467,12.4805259 12.6989172,12.551509 C12.7382877,12.6223758 12.7873337,12.690308 12.848031,12.7510344 C13.0058034,12.9087777 13.2615516,12.9087777 13.4192949,12.7510344 C13.5770673,12.593291 13.5770673,12.3375138 13.4192949,12.1797705 C13.4181036,12.1785792 13.4126993,12.172739 13.405232,12.1592862 C13.3939874,12.139354 13.3789366,12.1021337 13.3679826,12.0493104 C13.3568833,11.9966034 13.3497356,11.9288165 13.3497937,11.8501627 C13.3497065,11.7379787 13.3641763,11.6039448 13.3960213,11.4580271 C13.4515467,11.202337 13.5601569,10.9106179 13.7246702,10.6223274 C13.8480116,10.4059496 14.0025298,10.19117 14.1886315,9.99164455 C14.4679729,9.69222567 14.8172513,9.42720872 15.2438179,9.235877 C15.6706751,9.04477772 16.1758663,8.92582373 16.7767671,8.92556223 C17.3266169,8.92570751 17.80406,9.01002712 18.2170867,9.15623535 C17.9179002,9.54898111 17.6540455,9.95070508 17.4160504,10.3531845 C17.1275274,10.8411748 16.8767477,11.3302692 16.646278,11.8066663 C16.5798857,11.8018431 16.5118663,11.7993153 16.4421327,11.7993153 C16.007663,11.7992281 15.6136387,11.8748019 15.2686315,12.0133104 C15.0099196,12.1170102 14.7791593,12.2559835 14.5803312,12.421601 C14.2818131,12.6700562 14.055847,12.9778722 13.9059487,13.3132329 C13.7559051,13.648739 13.6809995,14.0118189 13.6809705,14.3764969 C13.6809995,14.716768 13.7462586,15.0588988 13.8785201,15.3817656 C13.9776872,15.6238576 14.1147138,15.8550538 14.2895709,16.0649521 C14.3382392,16.1234993 14.3899293,16.1803322 14.4444959,16.2353056 C14.0873433,16.8809521 13.7464329,17.4514024 13.4100843,17.9401482 C13.1564571,18.3088358 12.905445,18.6309472 12.6532998,18.9046809 C12.4642053,19.1100174 12.2745588,19.2881288 12.0827041,19.4394218 C11.7946169,19.6663758 11.5026363,19.8330392 11.1936291,19.9447293 C10.8844475,20.0561579 10.5568446,20.1137172 10.1908591,20.1139496 C9.94908668,20.1139206 9.72713027,20.0912571 9.52359516,20.0498237 C9.16734334,19.9771264 8.86731429,19.8477705 8.61240872,19.6760223 C8.42128039,19.5470441 8.2553724,19.3937172 8.11250557,19.2195574 C7.89836513,18.9584339 7.73603099,18.6495719 7.62715932,18.3098528 C7.51828765,17.9703661 7.46340145,17.6005453 7.46345956,17.2235768 C7.4633724,16.7972717 7.53365811,16.3622208 7.67068475,15.9533201 C7.77339661,15.6466082 7.91347409,15.3546567 8.08795351,15.09086 C8.21882034,14.8929617 8.36898015,14.7108697 8.53729976,14.549262 C8.78999709,14.3068213 9.08293656,14.1103177 9.41791961,13.9731167 C9.753077,13.8361191 10.1310044,13.7576397 10.5592271,13.7574654 C10.9011835,13.7576397 11.1849123,13.8200223 11.4218034,13.9227632 C11.599508,14.0000513 11.7514983,14.1003806 11.8821036,14.2192184 C11.9800213,14.3083613 12.0657937,14.4081094 12.1398567,14.5166906 C12.2508785,14.6794896 12.3354015,14.8624823 12.3920891,15.0570683 C12.4487768,15.251538 12.4774257,15.4573976 12.4773966,15.6634896 C12.4774547,15.906308 12.4375613,16.1490973 12.3601569,16.3733782 C12.3021036,16.5416397 12.2231593,16.6994121 12.1249511,16.8405356 C12.0512949,16.9464145 11.9668881,17.0429956 11.8719051,17.1285356 C11.7292416,17.2567584 11.5632174,17.3604581 11.368922,17.4337075 C11.1745976,17.5067826 10.9511884,17.5496397 10.6920407,17.5497559 C10.4689511,17.5497559 10.2880794,17.7305985 10.2880794,17.9536881 C10.2880794,18.1768068 10.4689511,18.3576494 10.6920407,18.3576494 C11.1057646,18.3578818 11.4830818,18.2748116 11.8107719,18.1242741 C12.0565831,18.0116542 12.2739777,17.8616397 12.4593821,17.6855332 C12.5985298,17.553446 12.7198663,17.4067729 12.8233337,17.2500174 C12.9786073,17.0147826 13.093784,16.7570877 13.170462,16.4890489 C13.2470528,16.2209811 13.285261,15.9423661 13.2852901,15.6634896 C13.285232,15.3310634 13.2310431,14.9978528 13.1197308,14.6817559 C13.0362247,14.4447487 12.9203797,14.2173588 12.7706266,14.0091167 C12.6583554,13.8529714 12.5269656,13.707722 12.3766315,13.5781046 C12.1513046,13.3835768 11.8831496,13.2248455 11.5780068,13.1164387 C11.2728349,13.0078286 10.9314305,12.9494847 10.5592271,12.9495719 C9.93365811,12.9492232 9.36660726,13.0879932 8.87661211,13.3318576 C8.50897046,13.5144726 8.18488329,13.755199 7.90745956,14.0357898 C7.49112058,14.4568939 7.17912058,14.9665017 6.9703845,15.5131264 C6.76176465,16.0600126 6.6555661,16.6447293 6.6555661,17.2235768 C6.6555661,17.6857075 6.72335303,18.1444678 6.86436029,18.5767002 C6.97015206,18.9007874 7.1174063,19.2099981 7.30891235,19.492245 C7.45253462,19.7038576 7.62108668,19.900216 7.81480097,20.0751603 C8.10518354,20.3376494 8.45257337,20.551354 8.85092688,20.6972717 C9.24930944,20.8434218 9.69772591,20.9218432 10.1908591,20.9218432 C10.5479245,20.9218432 10.8890383,20.8764581 11.2132998,20.7859787 C11.4970576,20.7069182 11.767537,20.5935719 12.0248252,20.4491651 C12.2500358,20.322831 12.4651642,20.1729327 12.6720988,20.0017947 C13.034278,19.7021143 13.3714692,19.3379593 13.6986654,18.915722 C14.1720407,18.3043903 14.6255709,17.5702402 15.0986557,16.7211748 C15.1710915,16.7601676 15.2460843,16.7966615 15.323663,16.8303661 C15.7479632,17.0149278 16.24714,17.1177269 16.8134935,17.1176107 C17.5271593,17.1178431 18.1696097,16.9739593 18.7262005,16.7180949 C19.1436726,16.5264145 19.5123893,16.2724097 19.8284862,15.9737172 C20.3029075,15.5255332 20.6588978,14.9780949 20.8962247,14.3861724 C21.1335225,13.7939884 21.2531738,13.1566809 21.2531738,12.5209424 C21.2531738,11.9733879 21.1643215,11.4265598 20.9820552,10.9111409 C20.8453191,10.5246421 20.6558179,10.1558383 20.4114305,9.81978015" id="Fill-29" fill="#FFFFFF"></path>
                    </g>
                </g>
            </g>
        </g>
    </g>
</svg>